# xmcd CD database file
# Copyright (C) 1995 Ti Kan
#
# Track frame offsets:
#	150
#	25200
#	45040
#	66772
#	83112
#	103867
#	129477
#	148065
#	163157
#	192730
#	212720
#
# Disc length: 3112 seconds
#
# Revision: 1
# Processed by: cddbd v1.4b41PL2 Copyright (c) Steve Scherf et al.
# Submitted via: NotifyCDPlayer(CDDB) 1.60beta5_freedb
#
DISCID=9c0c260b
DTITLE=J.B. Hutto and the House Rockers - Live 1977
DYEAR=1900
DGENRE=
TTITLE0=J.B.'s Boogie
TTITLE1=You Don't Have to Go
TTITLE2=SIxteen Year Old Boy
TTITLE3=Kansas City
TTITLE4=Dust My Broom
TTITLE5=Killing Floor
TTITLE6=Hip Shakin'
TTITLE7=Worried Live Blues
TTITLE8=Don't You Lie to Me
TTITLE9=Walking the Dog
TTITLE10=Too Much Alcohol
EXTD=Wolf Records 120.289 CD
EXTT0=
EXTT1=
EXTT2=
EXTT3=
EXTT4=
EXTT5=
EXTT6=
EXTT7=
EXTT8=
EXTT9=
EXTT10=
PLAYORDER=
